PathFileType	4	(X/Y/Z)	Patient4_TMGait_0pt3_02_right_06.trc.trc
DataRate	CameraRate	NumFrames	NumMarkers	Units	OrigDataRate	OrigDataStartFrame	OrigNumFrames
47.945205479452	47.945205479452	4	33	mm	47.945205479452	71	       141
Frame#	Time	Sacral			L.Shoulder			Chest			R.Shoulder			Neck			R.ASIS			L.ASIS			R.Thigh.Superior			R.Thigh.Lateral			R.Thigh.Inferior			R.Patella			L.Thigh.Superior			L.Thigh.Lateral			L.Thigh.Inferior			L.Patella			L.Shank.Superior			L.Shank.Lateral			L.Shank.Inferior			R.Shank.Superior			R.Shank.Lateral			R.Shank.Inferior			R.Heel			R.Midfoot.Superior			R.Midfoot.Lateral			R.Toe			L.Heel			L.Midfoot.Lateral			L.Midfoot.Superior			L.Toe			L.Elbow			L.Wrist			R.Elbow			R.Wrist			
		X1	Y1	Z1	X2	Y2	Z2	X3	Y3	Z3	X4	Y4	Z4	X5	Y5	Z5	X6	Y6	Z6	X7	Y7	Z7	X8	Y8	Z8	X9	Y9	Z9	X10	Y10	Z10	X11	Y11	Z11	X12	Y12	Z12	X13	Y13	Z13	X14	Y14	Z14	X15	Y15	Z15	X16	Y16	Z16	X17	Y17	Z17	X18	Y18	Z18	X19	Y19	Z19	X20	Y20	Z20	X21	Y21	Z21	X22	Y22	Z22	X23	Y23	Z23	X24	Y24	Z24	X25	Y25	Z25	X26	Y26	Z26	X27	Y27	Z27	X28	Y28	Z28	X29	Y29	Z29	X30	Y30	Z30	X31	Y31	Z31	X32	Y32	Z32	X33	Y33	Z33	

71	11.850000000000	693.160628038986	996.194828666702	603.030219521579	832.211046904385	1422.149712301702	390.874003141021	968.063703193370	1349.778271608773	524.269781839830	930.071883392320	1429.382167236552	709.449404599994	855.119196635031	1483.567122801696	546.573209533848	936.158191074579	926.981386731256	680.011302386682	879.746001397728	952.307937547986	411.517783915434	942.178553160959	718.760291744570	641.039739295546	848.645388020221	613.298857277425	700.589015131656	909.496592391770	557.698279406872	612.730156318384	893.997871979920	465.229627589437	614.164535396587	956.576807465912	760.911818687759	434.344273065264	894.144525730195	631.505539066941	366.481872411305	996.826307192467	572.165228569958	426.170146820489	1018.788585746082	510.477980652870	426.028346386734	1008.312515398538	439.636419989509	414.132963505032	952.002523408741	306.770653006480	359.842474950971	1044.412464913487	212.631833043976	415.445043918666	843.821544405128	383.536404604793	615.987541480430	751.738008736808	294.048473512502	674.629334118377	768.432515732790	198.031332678918	602.987321641200	602.927211660785	50.675575932102	564.329088553368	775.944773332775	95.801552037636	603.449117514125	684.285434038653	39.150934632887	639.833593054474	892.586543226213	38.311583270917	634.865759419023	964.172773493496	37.580352492033	449.348632092806	1042.260987535230	39.839977850617	373.017748186773	1114.770535592557	113.434768857596	398.216677925655	1248.015779773675	78.832923612859	378.688627571574	662.368125549302	1112.024809166290	323.183102065109	600.380479517665	860.414064103584	364.702444280005	1138.356674316683	1171.493861968777	818.166055777516	1379.451746998215	1237.429659905416	753.114876904820	
72	11.870857142857	694.247491100666	995.243505921878	600.741637739691	832.878798976379	1420.258600350296	387.296567694583	969.148729901625	1348.278417435196	520.524203889948	931.703253926728	1428.464334067817	705.496724490762	856.308151476005	1482.254930837618	542.663687451152	937.273558421801	925.742824244860	677.804682075210	880.732078656927	950.727901295178	409.331404164640	941.891009672129	717.206566190730	639.357522169838	847.241951444594	612.506812262190	698.998564475341	907.531509560684	556.254213319405	611.323979144825	891.019624054954	463.837690367673	612.768871960182	957.842914950000	759.493776586931	433.004641315143	895.072286558454	629.914739651627	365.736950267224	997.586999345064	570.957909391058	425.689286662854	1018.496861796222	508.538291972237	425.989279698867	1008.062423985558	437.330554898029	414.073501287443	950.586075809273	305.040626991496	360.048673787838	1041.488919876933	210.108137260634	416.315331080321	840.170619245578	382.532675913193	614.901012857763	747.329359391009	293.978048958953	673.840785151833	763.136752812769	197.667121087988	602.538269837766	596.674702197358	50.991945162239	564.331698483347	769.593173663259	95.550464901286	602.926998356326	678.022479716499	39.335510058028	639.852125441730	886.310440473446	38.235845930742	634.894610478716	958.308269550724	37.267950907594	450.023012032239	1036.488687514196	38.665418606254	373.710525810111	1110.614222550081	110.109215288576	399.909198800059	1243.102375991201	72.625632926408	380.154589426678	663.867996906008	1109.234880634825	321.728156807199	601.294892730732	857.864847562543	364.180795661881	1144.074729200892	1174.899053280343	813.160835951422	1382.694670923274	1247.150785586682	745.979870106514	
73	11.891714285714	695.469380622259	994.462319210829	598.244250796682	833.777893152612	1418.448867837486	383.439225530018	970.415238622592	1346.892118182155	516.564616869164	933.448545355262	1427.681586794008	701.322678285222	857.652823595130	1481.061175000787	538.437407497812	938.480620925543	924.600290983499	675.448913965514	881.938871284140	949.322206639664	406.977062580214	941.735995642878	715.721488170880	637.561019833686	845.968470385959	611.805984285906	697.259301470898	905.734902683686	554.894740273642	609.777879685936	888.235290621688	462.516296260870	611.248766392618	959.687901305981	758.651846774206	431.870174117324	897.122710991577	628.853341919005	364.921763302027	999.452070134171	570.299465595280	425.238537663729	1019.365648572751	506.948945381889	425.888525277536	1008.733629335796	435.316811208809	413.957958971316	949.705367129089	303.803596060703	360.029117073649	1038.603367361737	207.722324068056	417.063825929682	836.668632630215	381.627959662243	613.725183931748	743.071149333804	294.060989558074	673.008635068731	757.937423700516	197.430192541554	602.087711672267	590.462923864574	51.547051686715	564.377732626557	763.329500948448	95.381118681093	602.484284921666	671.793499115470	39.643066252139	639.899458914057	880.054067391884	38.140271058321	634.931194545257	951.945538244082	37.103069775563	450.577420202847	1030.144981343584	37.626401379925	374.204007666542	1105.937096118638	106.920443756443	401.334541181990	1237.632962176149	66.547378267120	381.217528712036	665.991300779109	1106.302798984446	319.600629707209	603.354765370340	855.034230977138	362.620055376140	1149.090543635378	1177.876213584411	808.285018283514	1385.625961275343	1254.705204494449	739.203177266177	
74	11.912571428571	696.823204423289	993.967766723971	595.522710230606	834.924929050517	1416.855305610145	379.347330296204	971.876618182108	1345.719737022275	512.422366343701	935.329836778719	1427.131694733579	696.957974139940	859.160920433579	1480.087503347868	533.954168997389	939.750543447743	923.639798433666	672.950427652530	883.366158909491	948.204189721884	404.453044253400	941.637391135774	714.385607498963	635.680426483438	844.744488073807	611.293773735300	695.417360689724	904.043383404422	553.695267772279	608.160191269926	885.587425476722	461.351730972722	609.697593802649	962.023231314583	758.422694664059	430.886707855285	900.106377203369	628.354962097694	364.001009192973	1002.228853619048	570.170064180516	424.743910994414	1021.232405028353	505.761243782059	425.694342862927	1010.177500468463	433.673710134985	413.777717282183	949.360343942085	303.092225103922	359.741439708810	1035.824861545685	205.607033301025	417.675423130537	833.277806607919	380.908576752255	612.536631940573	738.916386279628	294.381542500934	672.185918101733	752.839208228559	197.397719322142	601.692755806355	584.310914505915	52.430836963615	564.487972984102	757.201687532408	95.335146956118	602.182328188918	665.612752382199	40.111925243217	639.988374714275	873.822748607354	38.017308989477	634.975753510460	945.382097381702	37.076937542922	450.987930947468	1023.554613683686	36.790940182597	374.508153333322	1100.921361353498	104.086449294023	402.467234988077	1231.857628853147	61.042389416478	381.925951062555	668.649682537456	1103.461488109062	316.796007553609	606.437194941667	852.151119379977	360.012793290138	1153.509541374454	1180.540076966375	803.557497411417	1388.440548512228	1260.280853630949	732.793466794371	
